<?xml version="1.0" encoding="UTF-8" standalone="no"?>
<!-- Creator: CorelDRAW X6 -->

<svg
   xml:space="preserve"
   width="2.0506mm"
   height="2.0506mm"
   version="1.1"
   style="shape-rendering:geometricPrecision; text-rendering:geometricPrecision; image-rendering:optimizeQuality; fill-rule:evenodd; clip-rule:evenodd"
   viewBox="0 0 205 205"
   id="svg1716"
   sodipodi:docname="injure_aggravated.svg"
   inkscape:version="1.2.1 (9c6d41e410, 2022-07-14)"
   xmlns:inkscape="http://www.inkscape.org/namespaces/inkscape"
   xmlns:sodipodi="http://sodipodi.sourceforge.net/DTD/sodipodi-0.dtd"
   xmlns="http://www.w3.org/2000/svg"
   xmlns:svg="http://www.w3.org/2000/svg"><sodipodi:namedview
   id="namedview1718"
   pagecolor="#ffffff"
   bordercolor="#000000"
   borderopacity="0.25"
   inkscape:showpageshadow="2"
   inkscape:pageopacity="0.0"
   inkscape:pagecheckerboard="0"
   inkscape:deskcolor="#d1d1d1"
   inkscape:document-units="mm"
   showgrid="false"
   inkscape:zoom="74.266153"
   inkscape:cx="1.4946243"
   inkscape:cy="4.4367452"
   inkscape:window-width="1920"
   inkscape:window-height="1001"
   inkscape:window-x="-9"
   inkscape:window-y="-9"
   inkscape:window-maximized="1"
   inkscape:current-layer="Слой_x0020_1" />
 <defs
   id="defs1681">
  <style
   type="text/css"
   id="style1679">
   <![CDATA[
    .fil0 {fill:none}
    .fil1 {fill:#1C1B17}
    .fil2 {fill:#FEFEFE}
    .fil3 {fill:#AC0004}
   ]]>
  </style>
 </defs>
 <g
   id="Слой_x0020_1"
   inkscape:label="Слой 1">
  <metadata
   id="CorelCorpID_0Corel-Layer" />
  <polygon
   class="fil1"
   points="174,31 31,31 31,174 174,174 "
   id="polygon1684"
   style="display:inline" /><polygon
   class="fil2"
   points="55,150 150,150 150,55 55,55 "
   id="polygon1686"
   style="shape-rendering:geometricPrecision;text-rendering:geometricPrecision;image-rendering:optimizeQuality;fill-rule:evenodd;clip-rule:evenodd;display:inline" />
  
  <g
   id="_657250848"
   style="display:inline"
   inkscape:label="rt_to_lb">
   <path
   class="fil3"
   d="M 39,143 C 56,109 149,56 182,35 164,49 69,129 78,148 c 3,-1 1,0 4,-3 0,12 -10,21 -22,21 -12,0 -21,-10 -21,-22 z"
   id="path1688"
   style="display:inline" /><path
   class="fil3"
   d="m 42,134 c 48,-27 88,-48 132,-82 -36,36 -62,55 -98,97 -4,9 -15,14 -24,10 -9,-4 -14,-15 -10,-24 z"
   id="path1698"
   style="clip-rule:evenodd;display:inline;fill-rule:evenodd;image-rendering:optimizeQuality;shape-rendering:geometricPrecision;text-rendering:geometricPrecision" /><path
   class="fil3"
   d="M 39,129 C 129,62 85,95 170,30 94,103 130,64 63,148 c -5,7 -15,8 -21,2 -7,-5 -8,-15 -2,-21 z"
   id="path1708"
   style="clip-rule:evenodd;display:inline;fill-rule:evenodd;image-rendering:optimizeQuality;shape-rendering:geometricPrecision;text-rendering:geometricPrecision" /><path
   class="fil3"
   d="M 40,128 C 99,94 133,60 188,20 141,66 109,98 79,158 71,169 55,171 44,162 33,154 31,138 40,127 Z"
   id="path1693"
   style="clip-rule:evenodd;display:inline;fill-rule:evenodd;image-rendering:optimizeQuality;shape-rendering:geometricPrecision;text-rendering:geometricPrecision" />
  </g>
  
  
  
  
  
  
  
  
  
  <path
   class="fil3"
   d="m 67,74 c 19,5 2,2 0,0 0,0 0,0 0,0 z M 65,73 C 64,73 35,53 33,49 c 4,7 105,108 108,108 22,-4 22,-25 4,-30 C 144,127 21,-3 42,25 c 0,0 70,67 31,44 -34,-20 -33,-25 -6,4 -1,0 -1,0 -2,-1 z"
   id="path1713"
   style="display:inline"
   inkscape:label="lt_to_rb" />
 <g
   id="_657250848-6"
   style="clip-rule:evenodd;display:inline;fill-rule:evenodd;image-rendering:optimizeQuality;shape-rendering:geometricPrecision;text-rendering:geometricPrecision"
   inkscape:label="rt_to_lb"
   transform="matrix(-0.54785726,0.70140896,-0.62984483,-0.61010581,221.47391,74.83668)">
   <path
   class="fil3"
   d="M 39,143 C 56,109 149,56 182,35 164,49 69,129 78,148 c 3,-1 1,0 4,-3 0,12 -10,21 -22,21 -12,0 -21,-10 -21,-22 z"
   id="path1688-9"
   style="display:inline;fill:#ac0004" /><path
   class="fil3"
   d="m 42,134 c 48,-27 88,-48 132,-82 -36,36 -62,55 -98,97 -4,9 -15,14 -24,10 -9,-4 -14,-15 -10,-24 z"
   id="path1698-3"
   style="clip-rule:evenodd;display:inline;fill:#ac0004;fill-rule:evenodd;image-rendering:optimizeQuality;shape-rendering:geometricPrecision;text-rendering:geometricPrecision" /><path
   class="fil3"
   d="M 39,129 C 129,62 85,95 170,30 94,103 130,64 63,148 c -5,7 -15,8 -21,2 -7,-5 -8,-15 -2,-21 z"
   id="path1708-3"
   style="clip-rule:evenodd;display:inline;fill:#ac0004;fill-rule:evenodd;image-rendering:optimizeQuality;shape-rendering:geometricPrecision;text-rendering:geometricPrecision" /><path
   class="fil3"
   d="M 40,128 C 99,94 133,60 188,20 141,66 109,98 79,158 71,169 55,171 44,162 33,154 31,138 40,127 Z"
   id="path1693-1"
   style="clip-rule:evenodd;display:inline;fill:#ac0004;fill-rule:evenodd;image-rendering:optimizeQuality;shape-rendering:geometricPrecision;text-rendering:geometricPrecision" />
  </g></g>
</svg>
